# xmcd
#
# Track frame offsets:
#   150
#   62378
#   103259
#   133948
#   165546
#   198935
#   233480
#   272030
#   290780
#   324273
#   337853
#
# Disc length: 4719 seconds
#
# Revision: 0
# Processed by: cddbd v1.5.2PL0 Copyright (c) Steve Scherf et al.
# Submitted via: uFREEDB ActiveX Control 1.5
#
DISCID=9a126d0b
DTITLE=dance - dance
DYEAR=1900
DGENRE=Dance
TTITLE0=faixa1
TTITLE1=faixa2
TTITLE2=faixa3
TTITLE3=faixa4
TTITLE4=faixa5
TTITLE5=faixa 6
TTITLE6=faixa7
TTITLE7=faixa8
TTITLE8=faixa9
TTITLE9=faixa10
TTITLE10=faixa11
EXTD=
EXTT0=
EXTT1=
EXTT2=
EXTT3=
EXTT4=
EXTT5=
EXTT6=
EXTT7=
EXTT8=
EXTT9=
EXTT10=
PLAYORDER=
